<svg width="894" height="569" viewBox="0 0 894 569" fill="none" xmlns="http://www.w3.org/2000/svg">
<g>
<path d="M854 18H37C24.8497 18 15 27.8497 15 40V531.5C15 543.65 24.8497 553.5 37 553.5H854C866.15 553.5 876 543.65 876 531.5V40C876 27.8497 866.15 18 854 18Z" stroke="black" stroke-width="40"/>
<path d="M74.5 496V81.5C74.5 80.3954 75.3954 79.5 76.5 79.5H816.5C817.605 79.5 818.5 80.3954 818.5 81.5V496C818.5 497.105 817.605 498 816.5 498H76.5C75.3954 498 74.5 497.105 74.5 496Z" stroke="black" stroke-width="20"/>
</g>
<defs>
</defs>
</svg>
