<svg width="800" height="771" viewBox="0 0 800 771" fill="none" xmlns="http://www.w3.org/2000/svg">
<g clip-path="url(#clip0_103_58)">
<path d="M318.486 388.959L762.498 385.002V381.468C762.498 370.585 762.074 359.914 761.155 349.314L334.601 344.791C334.054 344.947 333.478 344.975 332.919 344.87C332.359 344.766 331.832 344.534 331.378 344.191C330.924 343.849 330.555 343.406 330.302 342.897C330.048 342.388 329.916 341.827 329.916 341.258C329.916 340.689 330.048 340.128 330.302 339.619C330.555 339.11 330.924 338.667 331.378 338.324C331.832 337.982 332.359 337.749 332.919 337.645C333.478 337.541 334.054 337.568 334.601 337.724L759.459 333.272C757.904 321.117 755.854 309.104 753.168 297.231L350.292 292.85C349.745 293.006 349.169 293.033 348.61 292.929C348.05 292.825 347.523 292.593 347.069 292.25C346.615 291.908 346.246 291.464 345.993 290.955C345.739 290.446 345.607 289.885 345.607 289.316C345.607 288.748 345.739 288.187 345.993 287.678C346.246 287.169 346.615 286.725 347.069 286.383C347.523 286.04 348.05 285.808 348.61 285.704C349.169 285.6 349.745 285.627 350.292 285.783L749.21 281.896C745.888 269.6 742.142 257.586 737.477 245.785L366.407 241.333C365.86 241.489 365.284 241.516 364.725 241.412C364.165 241.308 363.638 241.075 363.184 240.733C362.73 240.39 362.361 239.947 362.108 239.438C361.854 238.929 361.722 238.368 361.722 237.799C361.722 237.23 361.854 236.669 362.108 236.16C362.361 235.651 362.73 235.208 363.184 234.866C363.638 234.523 364.165 234.291 364.725 234.186C365.284 234.082 365.86 234.11 366.407 234.266L731.116 230.379C698.52 155.689 642.867 93.3926 572.304 52.6102C501.741 11.8278 419.973 -5.29875 338.971 3.73768C257.97 12.7741 181.989 47.499 122.151 102.829C62.3133 158.158 21.7619 231.187 6.43322 311.224L553.497 303.733L546.429 327.124L5.16098 318.503C2.74268 333.145 1.18505 347.916 0.496094 362.741L537.665 355.038L530.597 378.5L0.496094 369.949C0.496094 373.695 0.496094 377.369 0.496094 381.185C0.496094 392.28 0.99086 403.234 1.9097 414.046L521.903 406.485L514.835 429.947L2.75785 421.466C4.2757 436.218 6.63555 450.87 9.82586 465.352L506.071 457.931L499.003 481.323L11.1688 473.337C14.8845 488.173 19.463 502.779 24.8807 517.081L489.461 509.378L482.393 532.769L27.92 524.572C34.071 539.625 41.1527 554.282 49.124 568.457L473.628 560.825L466.56 584.216L53.7889 576.018C62.9795 591.41 73.2292 606.145 84.464 620.115L455.534 612.271L448.466 635.662L90.2598 627.324C133.827 678.84 190.288 717.873 253.877 740.436C317.467 763 385.906 768.285 452.207 755.753C518.508 743.221 580.294 713.32 631.257 669.104C682.22 624.888 720.533 567.941 742.283 504.078L286.256 499.626C285.709 499.782 285.133 499.809 284.574 499.705C284.014 499.601 283.487 499.368 283.033 499.026C282.579 498.683 282.21 498.24 281.956 497.731C281.703 497.222 281.571 496.661 281.571 496.092C281.571 495.524 281.703 494.963 281.956 494.453C282.21 493.944 282.579 493.501 283.033 493.159C283.487 492.816 284.014 492.584 284.574 492.48C285.133 492.376 285.709 492.403 286.256 492.559L747.231 488.601C750.72 476.743 753.598 464.714 755.854 452.561L302.371 447.896C301.824 448.053 301.248 448.08 300.689 447.976C300.129 447.872 299.602 447.639 299.148 447.297C298.694 446.954 298.325 446.511 298.072 446.002C297.818 445.493 297.686 444.932 297.686 444.363C297.686 443.794 297.818 443.233 298.072 442.724C298.325 442.215 298.694 441.772 299.148 441.429C299.602 441.087 300.129 440.854 300.689 440.75C301.248 440.646 301.824 440.673 302.371 440.83L758.54 436.802C760.236 425 761.438 413.057 762.003 400.973L318.486 396.45C317.939 396.606 317.363 396.633 316.804 396.529C316.244 396.425 315.717 396.193 315.263 395.85C314.809 395.508 314.44 395.064 314.187 394.555C313.933 394.046 313.801 393.485 313.801 392.916C313.801 392.348 313.933 391.787 314.187 391.278C314.44 390.769 314.809 390.325 315.263 389.983C315.717 389.64 316.244 389.408 316.804 389.304C317.363 389.2 317.939 389.227 318.486 389.383" fill="white"/>
</g>
<defs>
<clipPath id="clip0_103_58">
<rect width="800" height="771" fill="white"/>
</clipPath>
</defs>
</svg>
